<svg xmlns="http://www.w3.org/2000/svg" xmlns:xlink="http://www.w3.org/1999/xlink" viewBox="0 0 7000 2600" preserveAspectRatio="xMidYMid" fill-rule="evenodd" fill="white" stroke-width="28.222" stroke-linejoin="round" stroke="white" xmlns:v="https://vecta.io/nano"><defs><clipPath id="A"><path d="M0 0h7000v2600H0z"/></clipPath><path id="B" d="M2139 746c-81-146-256-232-439-232-371 0-666 240-666 671 0 439 285 682 661 679 159 0 358-78 444-243l13 209h256V543h-261l-8 203zm-418 13c556 0 556 854 0 854-230 0-418-162-418-428 0-264 188-426 418-426z"/></defs><g clip-path="url(#A)"><path d="M0 543v1287h269v-697c0-238 162-353 347-353 99 0 162 26 227 79l123-235c-73-66-193-110-319-110-138 0-284 34-378 198l-19-169H0z"/><use xlink:href="#B"/><path d="M3739 592c-92-62-240-88-347-88-350 0-698 216-698 647 0 402 280 642 698 642 240 0 404 100 404 280 0 183-211 264-410 264-214-3-417-110-410-311h-268c-11 358 258 572 678 572 345 0 690-175 690-525 0-154-76-332-340-421 230-88 342-274 342-501 0-159-49-274-156-399l154-180-196-152-141 172zm-347 162c222 0 417 144 417 397 0 233-180 394-417 394-233 0-426-138-426-394 0-269 206-397 426-397zm953 932c0 222 332 222 332 0 0-219-332-219-332 0zm1693-940c-81-146-256-232-439-232-371 0-666 240-666 671 0 439 285 682 661 679 159 0 358-78 444-243l13 209h256V543h-261l-8 203zm-418 13c556 0 556 854 0 854-230 0-418-162-418-428 0-264 188-426 418-426zm1321-221v1292h-269V538h269zm-301-374c0 222 335 222 335 0 0-219-335-219-335 0z"/></g></svg>